{"title":"Stuck.with.Hackett.S01E04.The.Suburbs.Are.For.Suckers.HDTV.XviD-","uid":6662040,"size":182497280,"categoryP":"video","categoryS":"tv_shows","magnet":"?xt=urn:btih:2b89e16598ef8f3041e28f3a683733df92f6aa6b&amp;dn=Stuck.with.Hackett.S01E04.The.Suburbs.Are.For.Suckers.HDTV.XviD-&amp;tr=udp%3A%2F%2Ftracker.openbittorrent.com%3A80&amp;tr=udp%3A%2F%2Fopen.demonii.com%3A1337&amp;tr=udp%3A%2F%2Ftracker.coppersurfer.tk%3A6969&amp;tr=udp%3A%2F%2Fexodus.desync.com%3A6969","seeders":3,"leechers":0,"uploader":"trialNerror","files":1,"time":1315552973,"description":"Stuck with Hacket - The Suburbs Are For Suckers\n \nHackett attempts to create his own source of power for an abandoned suburban home rather than pay the large reactivation fees demanded by the electrical company by experimenting with combining a car engine with a table saw motor.\n \nFormat                           : AVI\nFormat/Info                      : Audio Video Interleave\nFile size                        : 174 MiB\nDuration                         : 21mn 26s\nOverall bit rate                 : 1 134 Kbps\nWriting application              : VirtualDubMod 1.5.10.2 (build 2542/release)\nWriting library                  : VirtualDubMod build 2542/release\n \nVideo\nID                               : 0\nFormat                           : MPEG-4 Visual\nFormat profile                   : Advanced Simple@L5\nFormat settings, BVOP            : 2\nFormat settings, QPel            : No\nFormat settings, GMC             : No warppoints\nFormat settings, Matrix          : Default (H.263)\nCodec ID                         : XVID\nCodec ID/Hint                    : XviD\nDuration                         : 21mn 26s\nBit rate                         : 991 Kbps\nWidth                            : 624 pixels\nHeight                           : 352 pixels\nDisplay aspect ratio             : 16:9\nFrame rate                       : 29.970 fps\nColor space                      : YUV\nChroma subsampling               : 4:2:0\nBit depth                        : 8 bits\nScan type                        : Progressive\nCompression mode                 : Lossy\nBits/(Pixel*Frame)               : 0.151\nStream size                      : 152 MiB (87%)\nWriting library                  : XviD 64\n \nAudio\nID                               : 1\nFormat                           : MPEG Audio\nFormat version                   : Version 1\nFormat profile                   : Layer 3\nMode                             : Joint stereo\nMode extension                   : MS Stereo\nCodec ID                         : 55\nCodec ID/Hint                    : MP3\nDuration                         : 21mn 26s\nBit rate mode                    : Variable\nBit rate                         : 128 Kbps\nChannel(s)                       : 2 channels\nSampling rate                    : 48.0 KHz\nCompression mode                 : Lossy\nStream size                      : 19.9 MiB (11%)\nAlignment                        : Aligned on interleaves\nInterleave, duration             : 24 ms (0.72 video frame)\nInterleave, preload duration     : 486 ms","torrent":{"xt":"urn:btih:2b89e16598ef8f3041e28f3a683733df92f6aa6b","amp;dn":"Stuck.with.Hackett.S01E04.The.Suburbs.Are.For.Suckers.HDTV.XviD-","amp;tr":["udp%3A%2F%2Ftracker.openbittorrent.com%3A80","udp%3A%2F%2Fopen.demonii.com%3A1337","udp%3A%2F%2Ftracker.coppersurfer.tk%3A6969","udp%3A%2F%2Fexodus.desync.com%3A6969"],"infoHash":"2b89e16598ef8f3041e28f3a683733df92f6aa6b","infoHashBuffer":{"type":"Buffer","data":[43,137,225,101,152,239,143,48,65,226,143,58,104,55,51,223,146,246,170,107]},"announce":[],"urlList":[]}}